<svg width="38" height="34" viewBox="0 0 38 34" fill="none" xmlns="http://www.w3.org/2000/svg">
<path d="M33.9548 0.961383C33.22 1.2063 25.7759 3.66294 17.404 6.42388C9.03955 9.1774 1.95165 11.5153 1.65478 11.6266C0.986811 11.8641 0.526654 12.2649 0.244623 12.829C-0.0374082 13.4004 -0.04483 14.2614 0.214936 14.7735C0.43017 15.1965 0.845795 15.6344 1.20205 15.82C1.35048 15.8942 3.30244 16.7626 5.53642 17.7422C7.77041 18.7219 9.60361 19.5309 9.61845 19.5458C9.6333 19.5606 10.2122 22.2028 10.9024 25.4165C11.6001 28.6301 12.2235 31.3836 12.2977 31.5321C12.5798 32.111 13.2552 32.304 13.8415 31.97C14.0048 31.8735 15.5485 30.7379 17.2704 29.4465L20.4024 27.1012L24.0243 30.0626C26.0134 31.6954 27.8095 33.1129 28.0099 33.2243C28.4849 33.484 29.138 33.5434 29.7243 33.3653C30.3255 33.1946 31.0083 32.5192 31.1938 31.918C31.2606 31.6954 32.8267 25.0973 34.6673 17.2598C38.3411 1.62193 38.1481 2.58677 37.7548 1.8149C37.354 1.0356 36.686 0.597711 35.8103 0.545758C35.3353 0.523492 35.1794 0.55318 33.9548 0.961383ZM35.736 2.95044C35.7063 3.06919 34.1997 9.46685 32.3888 17.1782C30.5778 24.8895 29.0786 31.2204 29.0563 31.2352C29.0341 31.2575 28.9599 31.2204 28.8931 31.161C28.8188 31.1016 26.2583 29.0012 23.1931 26.5001C20.1353 23.9989 17.597 21.9282 17.5673 21.8985C17.5376 21.8688 20.1204 19.1153 23.3192 15.7754C26.5181 12.4356 29.2048 9.5856 29.2938 9.43716C29.4052 9.25904 29.4645 9.05123 29.4645 8.82857C29.4645 8.53169 29.42 8.43521 29.1825 8.16802C28.9153 7.86373 28.8708 7.84146 28.4552 7.81919L28.0173 7.78951L19.2817 12.6434L10.5536 17.4973L6.38251 15.679C4.09658 14.677 2.24853 13.8309 2.28564 13.7938C2.34501 13.7344 35.5208 2.7649 35.6915 2.75748C35.7657 2.75005 35.7731 2.80201 35.736 2.95044ZM22.3395 13.5415C22.3395 13.5563 20.6845 15.3079 18.6583 17.4231C16.6321 19.5383 14.9251 21.3641 14.8731 21.4903C14.8212 21.609 14.4798 22.7297 14.131 23.9766C13.7747 25.2235 13.463 26.2626 13.4333 26.2997C13.3888 26.3516 11.9341 19.7461 11.9192 19.427C11.9118 19.3305 13.1735 18.5958 17.1071 16.4063C19.9645 14.818 22.3099 13.5118 22.3247 13.5118C22.3321 13.5118 22.3395 13.5266 22.3395 13.5415ZM17.6489 24.8524C18.1536 25.2606 18.5618 25.6168 18.5618 25.6465C18.5618 25.7208 15.3259 28.1329 15.3036 28.0735C15.2962 28.0438 15.4892 27.3165 15.7341 26.4629C16.5356 23.6872 16.4688 23.8727 16.6099 23.9989C16.6767 24.0583 17.1442 24.4368 17.6489 24.8524Z" fill="white"/>
</svg>
