<svg width="38" height="38" viewBox="0 0 38 38" fill="none" xmlns="http://www.w3.org/2000/svg">
<path d="M11.9121 0.126133C6.65745 0.838633 2.36018 4.34918 0.705104 9.29215C0.0594006 11.2218 -0.02224 12.1347 0.0222912 16.7734C0.0519787 20.1132 0.0668225 20.5214 0.207838 21.2785C1.17268 26.3921 4.91331 30.489 9.89339 31.8918L10.6133 32.0921V34.5859C10.6133 36.805 10.6282 37.1019 10.7469 37.332C11.0438 37.9332 11.8008 38.1113 12.3723 37.7179C12.5356 37.6066 13.9457 36.382 15.5043 34.9941L18.3469 32.4707L22.0356 32.4261C24.8782 32.389 25.8875 32.3445 26.4516 32.2554C32.6414 31.2535 37.2504 26.4293 37.9184 20.2468C38.0223 19.3117 38.0223 13.1218 37.9184 12.1867C37.3321 6.7984 33.6953 2.32301 28.5668 0.682774C28.1735 0.556602 27.5203 0.378477 27.1196 0.281993C26.3848 0.118711 26.3625 0.118711 19.2598 0.103868C15.341 0.0964458 12.0383 0.103868 11.9121 0.126133ZM26.7188 2.47887C30.875 3.46598 33.9032 6.16754 35.1797 10.0121C35.7215 11.6375 35.7364 11.7933 35.7364 16.2168C35.7364 20.6402 35.7215 20.8109 35.1797 22.4214C33.9032 26.2437 30.7117 29.1011 26.8078 29.9175C25.7168 30.1476 24.5516 30.207 20.9594 30.207H17.6121L17.3227 30.4222C17.1668 30.541 16.0981 31.4761 14.9551 32.4929L12.877 34.341L12.8399 32.5523C12.8028 30.8304 12.7953 30.7562 12.6321 30.5187C12.402 30.1996 12.3055 30.155 11.452 29.9843C6.82815 29.0418 3.45862 25.7093 2.4344 21.0484C2.27112 20.3211 2.2637 20.1652 2.2637 16.291C2.2637 11.7785 2.27854 11.63 2.82034 10.0121C4.02268 6.39762 6.90979 3.67379 10.5762 2.66441C11.8676 2.31559 11.8676 2.31559 19.2227 2.33043C25.5981 2.34527 26.2067 2.3527 26.7188 2.47887Z" fill="white"/>
<path d="M20.4326 4.1265C19.7498 4.46048 19.6756 5.57376 20.3064 5.98197C20.4029 6.04876 20.8556 6.20462 21.301 6.31595C22.6295 6.66478 23.5424 7.06556 24.6408 7.77064C27.0381 9.32923 28.6783 11.6077 29.4353 14.4429C29.658 15.2742 29.799 15.5117 30.1627 15.6898C30.6748 15.9273 31.1943 15.7714 31.5728 15.2667C31.8029 14.955 31.7658 14.391 31.4392 13.337C30.7564 11.1031 29.7322 9.40345 28.092 7.75579C27.6021 7.25853 26.949 6.6722 26.6447 6.44954C25.2791 5.43275 23.7576 4.69056 22.199 4.26009C21.1822 3.97806 20.7888 3.95579 20.4326 4.1265Z" fill="white"/>
<path d="M19.015 8.43881C18.4733 8.706 18.258 9.39623 18.5549 9.92319C18.7701 10.3165 19.015 10.4427 19.7572 10.5763C21.9096 10.9474 23.6463 12.2537 24.6111 14.2205C24.9006 14.8142 25.0787 15.4228 25.2791 16.5361C25.3014 16.6326 25.4275 16.8255 25.5611 16.974C25.7764 17.2189 25.8506 17.2486 26.244 17.2783C26.615 17.3005 26.719 17.2783 26.9342 17.1298C27.0752 17.0408 27.2533 16.833 27.335 16.6771C27.4686 16.4099 27.476 16.3431 27.3943 15.7494C27.283 14.9478 26.8897 13.7529 26.4815 12.9662C25.2717 10.6505 22.9338 8.91381 20.351 8.41654C19.6459 8.28295 19.3193 8.29037 19.015 8.43881Z" fill="white"/>
<path d="M10.7986 11.0512C10.4795 11.1403 9.53691 11.5633 9.01738 11.8676C8.77246 12.0087 8.29004 12.4094 7.94121 12.7583C7.42168 13.2778 7.24355 13.5301 6.9541 14.1016C6.42715 15.1481 6.28613 15.779 6.28613 16.9962C6.28613 17.8348 6.32324 18.1169 6.4791 18.7254C6.70918 19.5864 7.20645 20.6254 7.71113 21.3008C7.91152 21.568 9.18809 22.8891 10.5537 24.2325C12.6541 26.318 13.1143 26.7337 13.6412 27.0454C15.5857 28.1958 17.8568 28.4481 19.7717 27.7282C21.1447 27.2087 22.1689 26.2512 23.0521 24.6778C23.3193 24.1954 23.3416 24.1212 23.3416 23.5645C23.3342 22.3622 23.0373 22.095 20.0908 20.6032C17.9459 19.527 17.8939 19.4973 17.4264 19.4973C16.9662 19.4973 16.5283 19.6458 16.1646 19.9055C16.0459 19.9872 15.942 19.9129 15.2963 19.2672L14.5541 18.5325L14.7768 18.3247C15.1107 18.0129 15.2889 17.5528 15.2889 16.9739V16.4692L14.1459 14.2278C13.515 12.9958 12.899 11.8602 12.7729 11.7118C12.3572 11.2219 11.3924 10.8954 10.7986 11.0512ZM12.9139 16.7661C12.9139 16.8032 12.7283 16.9071 12.5057 16.9962C11.7857 17.293 11.4295 17.9165 11.6744 18.4879C11.8748 18.9629 13.5893 20.8036 14.9697 22.0133C15.8158 22.7555 15.9939 22.8594 16.4096 22.8594C16.8549 22.8594 17.2037 22.6294 17.4264 22.1915L17.5896 21.8501L19.3338 22.7333L21.0854 23.609L20.8775 23.995C20.6029 24.5071 19.8607 25.2419 19.3635 25.4794C18.3615 25.9692 16.9885 26.036 15.8975 25.6575C14.7693 25.2641 14.4725 25.0266 11.9045 22.4587C9.31426 19.8684 9.11387 19.6161 8.71309 18.4434C8.54238 17.9462 8.5127 17.7235 8.50527 17.0333C8.49785 16.0833 8.66113 15.5044 9.12129 14.7844C9.47012 14.2426 9.90059 13.8938 10.6057 13.5524L11.1623 13.2852L12.0381 14.9922C12.5205 15.9274 12.9139 16.729 12.9139 16.7661Z" fill="white"/>
<path d="M18.1465 12.8176C17.5898 12.9438 17.4266 13.018 17.2262 13.2184C16.7883 13.6563 16.7809 14.3465 17.2113 14.777C17.5082 15.0664 17.857 15.148 18.4434 15.0441C19.8758 14.7992 20.9816 15.9273 20.707 17.3672C20.618 17.8199 20.6254 17.8867 20.7664 18.2059C20.9594 18.6363 21.2859 18.8516 21.7461 18.8516C22.1246 18.8516 22.4883 18.666 22.6813 18.3617C22.8371 18.1242 23.0078 17.382 23.0078 16.9219C23.0078 15.0738 21.6348 13.352 19.7793 12.877C19.3711 12.773 18.4805 12.7359 18.1465 12.8176Z" fill="white"/>
</svg>
