<svg width="38" height="38" viewBox="0 0 38 38" fill="none" xmlns="http://www.w3.org/2000/svg">
<path d="M17.5156 0.0444603C12.3648 0.526882 7.85972 2.79798 4.61636 6.56087C2.21168 9.34407 0.727302 12.5726 0.178083 16.2167C-0.00746387 17.4562 -0.0148857 20.1058 0.170661 21.3007C0.48238 23.3343 1.04644 25.1527 1.92964 26.971L2.30816 27.7429L1.18746 32.8417C0.571442 35.6472 0.0741767 37.9554 0.0890205 37.9628C0.103864 37.9777 0.24488 37.9628 0.408161 37.9257C0.571442 37.8886 2.89449 37.3542 5.56636 36.7456L10.4277 35.6398L11.1328 35.9589C13.0105 36.805 15.0441 37.3542 17.0554 37.562C18.3023 37.6882 20.9593 37.614 22.0652 37.4136C25.4496 36.8124 28.3441 35.5136 30.9492 33.4281C31.7582 32.7749 33.146 31.387 33.7992 30.5781C36.048 27.7652 37.473 24.3585 37.8515 20.8999C37.9554 19.9425 37.9554 17.7531 37.8515 16.8105C37.2206 11.1327 33.9476 5.98938 28.9527 2.82024C26.9562 1.55853 24.2621 0.586258 21.6718 0.185478C20.9148 0.0741501 18.2281 -0.0223351 17.5156 0.0444603ZM20.5289 3.05032C24.0171 3.39173 27.2902 4.85384 29.7988 7.19173C32.582 9.78938 34.3261 13.0699 34.8456 16.714C35.0015 17.8421 35.0015 19.8757 34.8456 20.9741C34.4226 23.8613 33.2277 26.5925 31.4167 28.8116C30.8675 29.4722 29.6726 30.6597 29.0195 31.1792C26.7855 32.9679 23.9429 34.1777 21.0929 34.5488C20.1207 34.6749 17.9386 34.6972 17.0925 34.5859C15.2371 34.3335 13.53 33.8214 11.8898 33.0273L10.8285 32.5077L7.40699 33.287C5.52183 33.7175 3.97808 34.0589 3.97066 34.0515C3.96324 34.0366 4.28238 32.5597 4.68316 30.7636C5.08394 28.9675 5.4105 27.4238 5.4105 27.3347C5.41793 27.2456 5.29918 26.9636 5.15074 26.7113C3.45113 23.8093 2.6941 20.3284 3.07261 17.0851C4.07457 8.46087 11.8601 2.20423 20.5289 3.05032Z" fill="white"/>
<path d="M12.3348 10.6949C11.9489 10.8879 11.3403 11.5484 10.9618 12.1867C10.1825 13.4929 10.1157 15.1777 10.7688 16.8402C11.563 18.8441 13.9602 21.9019 16.1051 23.6461C17.7602 24.9969 19.727 25.9469 22.1911 26.5851C23.2821 26.8746 24.3954 26.8969 25.1598 26.6519C26.0505 26.3699 27.1415 25.5906 27.4903 24.9894C27.8614 24.3437 28.0692 22.889 27.8317 22.5996C27.7204 22.466 24.6551 20.9371 24.0911 20.7367C23.5196 20.5289 23.438 20.566 22.8368 21.3156C21.5825 22.8965 21.4637 23.0004 21.0184 22.8519C20.6622 22.7406 19.3634 22.0949 18.8884 21.798C17.4485 20.9074 15.9493 19.3636 15.029 17.8347C14.6505 17.2039 14.6727 17.1074 15.3333 16.4023C15.6747 16.0386 15.9716 15.6304 16.0903 15.3781L16.2759 14.9625L16.1274 14.5468C16.0458 14.3242 15.6969 13.4558 15.3555 12.6246C14.888 11.489 14.6653 11.0363 14.4649 10.8211L14.1977 10.539H13.4259C12.7876 10.539 12.5946 10.5687 12.3348 10.6949Z" fill="white"/>
</svg>
